<?xml version="1.0" encoding="utf-8"?>
<!-- Generator: Adobe Illustrator 25.2.0, SVG Export Plug-In . SVG Version: 6.00 Build 0)  -->
<svg version="1.1" id="Layer_1" xmlns="http://www.w3.org/2000/svg" xmlns:xlink="http://www.w3.org/1999/xlink" x="0px" y="0px"
	 viewBox="0 0 78 78" style="enable-background:new 0 0 78 78;" xml:space="preserve">
<style type="text/css">
	.st0{clip-path:url(#SVGID_2_);}
	.st1{fill:#FEFFFE;}
	.st2{fill:#3A73B8;}
</style>
<g>
	<defs>
		<rect id="SVGID_1_" width="78" height="78"/>
	</defs>
	<clipPath id="SVGID_2_">
		<use xlink:href="#SVGID_1_"  style="overflow:visible;"/>
	</clipPath>
	<g class="st0">
		<path class="st1" d="M36.2,2c7.1-0.6,14.3,1,20.6,4.4c10.6,5.7,18.1,16.9,19.2,28.9c0.8,7.4-0.8,15.1-4.4,21.6
			c-3.6,6.6-9.3,12-16,15.3c-5.3,2.7-11.2,4-17.1,3.9c-8.1-0.1-16.1-3-22.4-8c-5.5-4.3-9.7-10.2-12-16.8c-3.6-10.1-2.5-21.8,3-31
			c3.7-6.4,9.4-11.6,16-14.8C27.1,3.5,31.6,2.3,36.2,2 M29.6,5.5c-6.4,1.7-12.4,5.5-16.1,11c-2.6,3.6-4,7.9-4.8,12.2
			c-0.4,2.7-0.5,5.6,0.8,8.1c0.6,1.2,1.7,2.2,2.3,3.4c0.5,1.1,0.1,2.7-1,3.3c-1,0.7-2.5,0.5-3.4-0.3c-1.3-1.1-1.9-2.8-2.2-4.4
			c-0.6-3.7,0.2-7.4,1.1-10.9c-0.7,0.3-0.6,1.3-0.9,2c-1.6,6.2-1.6,12.8,0.2,19c1.7,5.9,5,11.3,9.9,15.1c3.7,2.9,8.2,4.6,12.7,5.4
			c2.7,0.5,5.7,0.6,8.3-0.6c1.3-0.6,2.2-1.8,3.5-2.4c1.1-0.5,2.4-0.4,3.2,0.5c1,0.9,1,2.6,0.2,3.6c-0.8,1.1-2.2,1.8-3.5,2.1
			c-2.9,0.7-6,0.4-8.9-0.1c-1.1-0.2-2.1-0.6-3.2-0.6c0.6,0.6,1.4,0.7,2.2,0.9c5.7,1.4,11.9,1.4,17.6,0c6.6-1.6,12.9-5.3,16.8-11
			c2.6-3.5,4-7.7,4.8-11.9c0.5-3.1,0.7-6.6-1.2-9.3c-0.9-1.3-2.3-2.5-2-4.3c0.1-1.6,1.9-2.6,3.4-2.1c1.9,0.6,2.8,2.7,3.2,4.6
			c0.8,3.8,0,7.7-1,11.4c0.3,0,0.4-0.2,0.5-0.4c1.7-5.4,2-11.3,1-16.9c-1.2-6.6-4.2-13-9.2-17.4c-3-2.8-6.8-4.7-10.7-5.8
			C50,8.6,46.4,8,43,8.8c-1.7,0.4-3,1.5-4.3,2.5c-1.1,0.9-2.9,0.9-4-0.1c-0.9-1-0.8-2.6,0-3.6c1.1-1.4,2.8-2,4.5-2.3
			c2.7-0.4,5.4-0.1,8,0.4c1,0.2,2,0.7,3.1,0.7c-0.2-0.2-0.4-0.4-0.7-0.5C43.1,3.8,36.1,3.7,29.6,5.5z"/>
		<path class="st1" d="M30.5,18.6c1.4-0.8,3.3-1,4.7-0.2c1.2,0.7,1.6,2.1,1.5,3.4c-0.2,2.5-1.4,4.9-3,6.9c-1.7,2-3.7,3.8-6.2,4.8
			c0.2,0.8,0.8,1.6,1.7,1.6c1.6,0.1,2.9-0.9,4-1.9c0.8-0.6,0.8-1.7,1.2-2.6c0.5-1.4,1.3-2.8,2.7-3.5c0.6-0.3,1.6-0.4,2.1,0.3
			c0.5,0.9,0,2-0.4,2.8c-0.6,1.2-1.6,2.2-2.4,3.2c-0.3,1-0.4,2.1-0.4,3.1c1.1-0.5,2.1-1.2,3.1-1.8c1.8-1.2,3.7-2.3,5.4-3.6
			c0.2-0.7-0.1-1.4,0-2c-0.1-3.3,1-6.7,3.3-9.1c1.4-1.5,3.5-2.5,5.5-2c1.2,0.2,2.2,1.2,2.5,2.4c0.4,1.8-0.2,3.6-1.1,5.1
			c-1.6,2.5-3.9,4.4-6.3,6.2c0.3,0.8,0.8,1.7,1.6,2c1.2-0.2,2.5-0.6,3.7-0.3c0.8,0.2,1.8,0.4,2.2,1.3c0.4,0.8-0.3,1.6-1.1,1.9
			c-1.6,0.5-3.2,0.2-4.8,0.1c-1.9,0.5-3.6,1.7-4.8,3.3c-1.9,2.4-2.4,5.7-2,8.6c0.4,2.5,1.6,5,3.8,6.3c2.5,1.6,6,1.2,8.1-0.9
			c1.9-2,2.5-5.1,1.5-7.7c-0.5-1.1-1.4-2.1-2.7-2.3c-1.4-0.3-3.1,0.6-3.3,2.1c-0.2,1.2,0.6,2.1,1.3,3c0.5,0.6,0.6,1.6-0.1,2.1
			c-1,0.7-2.5,0.2-3.3-0.6c-2-2-2-5.6,0-7.6c2.5-2.8,7.4-2.9,9.9-0.1c2.7,3,3,7.8,1,11.2c-1.6,2.7-4.4,4.6-7.4,5.1
			c-3.4,0.5-7-0.6-9.3-3.1c-4.6-4.7-4.5-13-0.1-17.8c1.2-1.4,2.7-2.4,4.3-3.3c-0.3-0.5-0.7-0.9-1-1.3c-3,2.2-6.2,4.2-9.4,6
			c-0.6,0.2-0.5,0.9-0.5,1.3c-0.3,4-0.6,8.2-2.6,11.8c-1.3,2.5-3.4,4.9-6.1,5.9c-2.2,0.8-4.8,0.9-6.8-0.4c-1.9-1.2-2.8-3.6-2.6-5.8
			c0.3-2.8,1.9-5.3,3.9-7.1c2.7-2.5,6.1-4.2,9.3-6c0.7-0.4,1.4-0.7,2-1.1c0.2-0.6,0.3-1.2,0.3-1.9c-1.7,1-3.8,1.8-5.8,1.1
			c-1.6-0.6-2.6-2.1-3.1-3.7c-1.5-0.2-3-0.8-4-2c-1.7-2-1.8-5-0.6-7.3c0.4-0.8,1.3-1.2,2.2-1.2c0.2,0.3,0.5,0.7,0.4,1.1
			c-0.3,1.5-0.8,3-0.3,4.5c0.2,1,1.1,1.8,2.1,2c0.2-2.4,0.7-4.8,1.8-7C26.9,21.8,28.4,19.8,30.5,18.6 M31.9,21c-1.4,1-2.3,2.5-3,4
			c-0.8,1.7-1.5,3.5-1.5,5.4c0.5-0.2,1.1-0.6,1.5-1c1.8-1.6,3.3-3.4,4.4-5.5c0.4-0.8,0.7-1.6,0.5-2.5C33.4,20.7,32.5,20.6,31.9,21
			 M50.3,21.7c-1.7,1.9-2.6,4.5-2.6,7.1c1.9-1.5,3.6-3.4,4.8-5.5c0.3-0.7,0.8-1.8-0.1-2.3C51.7,20.6,50.8,21.2,50.3,21.7 M25.1,46.5
			c-1.6,1.5-3.2,3.2-3.8,5.3c-0.3,1.2-0.4,2.6,0.6,3.5c1,0.9,2.6,0.7,3.8,0.2c2.3-0.9,3.7-3.1,4.6-5.3c1.1-2.7,1.8-5.5,2-8.4
			C29.7,43.1,27.3,44.6,25.1,46.5z"/>
		<path class="st2" d="M36.2,0.1c7.7-0.6,15.5,1.2,22.2,5.1c5.3,3.1,10,7.4,13.3,12.6c4.2,6.3,6.3,13.9,6.3,21.5
			c0,7.9-2.6,15.8-7.2,22.3c-4.7,6.6-11.5,11.7-19.1,14.3c-6.8,2.4-14.3,2.7-21.3,1.2c-7.4-1.6-14.2-5.5-19.5-11
			C5.4,60.3,1.6,52.9,0.5,44.9C-0.7,37.9,0.3,30.5,3,24C5.6,17.8,9.7,12.4,15,8.3C21,3.5,28.5,0.6,36.2,0.1 M36.2,2
			C31.6,2.3,27.1,3.5,23,5.5c-6.7,3.2-12.3,8.4-16,14.8c-5.5,9.2-6.6,20.9-3,31c2.3,6.6,6.5,12.4,12,16.8c6.3,5,14.4,7.9,22.4,8
			c5.9,0.1,11.9-1.2,17.1-3.9c6.7-3.3,12.4-8.8,16-15.3c3.6-6.5,5.2-14.2,4.4-21.6c-1.1-12-8.6-23.2-19.2-28.9
			C50.5,3,43.3,1.4,36.2,2z"/>
		<path class="st2" d="M29.6,5.5c6.5-1.8,13.5-1.7,19.9,0.3c0.3,0.1,0.5,0.3,0.7,0.5c-1.1-0.1-2-0.6-3.1-0.7c-2.6-0.5-5.3-0.8-8-0.4
			c-1.7,0.3-3.4,0.9-4.5,2.3c-0.8,1-0.9,2.7,0,3.6c1,1.1,2.8,1,4,0.1c1.3-1,2.6-2.2,4.3-2.5c3.4-0.8,7-0.2,10.2,0.8
			c4,1.1,7.7,3,10.7,5.8c5.1,4.5,8.1,10.9,9.2,17.4c1,5.6,0.7,11.5-1,16.9c-0.1,0.3-0.2,0.4-0.5,0.4c1-3.7,1.8-7.6,1-11.4
			c-0.4-1.8-1.3-3.9-3.2-4.6c-1.5-0.5-3.3,0.5-3.4,2.1c-0.3,1.7,1.1,3,2,4.3c1.9,2.7,1.7,6.2,1.2,9.3c-0.9,4.2-2.3,8.4-4.8,11.9
			c-3.9,5.6-10.2,9.4-16.8,11c-5.8,1.4-11.9,1.4-17.6,0c-0.8-0.2-1.6-0.3-2.2-0.9c1.1,0,2.1,0.5,3.2,0.6c2.9,0.5,6,0.9,8.9,0.1
			c1.3-0.4,2.7-1,3.5-2.1c0.8-1.1,0.8-2.7-0.2-3.6c-0.8-0.9-2.2-1-3.2-0.5c-1.2,0.7-2.2,1.8-3.5,2.4c-2.6,1.2-5.6,1.1-8.3,0.6
			c-4.5-0.9-9-2.5-12.7-5.4c-4.9-3.7-8.2-9.2-9.9-15.1c-1.7-6.2-1.8-12.8-0.2-19c0.3-0.6,0.2-1.7,0.9-2c-0.9,3.5-1.7,7.2-1.1,10.9
			c0.3,1.6,0.9,3.3,2.2,4.4c0.9,0.8,2.4,1.1,3.4,0.3c1.1-0.6,1.5-2.2,1-3.3c-0.5-1.3-1.6-2.2-2.3-3.4c-1.4-2.5-1.2-5.4-0.8-8.1
			c0.8-4.3,2.2-8.6,4.8-12.2C17.2,11,23.2,7.2,29.6,5.5 M30.5,18.6c-2.1,1.1-3.6,3.2-4.6,5.3c-1.1,2.2-1.6,4.6-1.8,7
			c-1-0.1-1.9-0.9-2.1-2c-0.5-1.5,0-3,0.3-4.5c0.1-0.4-0.2-0.8-0.4-1.1c-0.9-0.1-1.8,0.4-2.2,1.2c-1.2,2.3-1.1,5.3,0.6,7.3
			c1,1.2,2.5,1.8,4,2c0.5,1.6,1.5,3.1,3.1,3.7c1.9,0.8,4.1,0,5.8-1.1c-0.1,0.6-0.1,1.3-0.3,1.9c-0.6,0.5-1.3,0.8-2,1.1
			c-3.3,1.7-6.6,3.5-9.3,6c-2,1.9-3.6,4.4-3.9,7.1c-0.1,2.2,0.7,4.6,2.6,5.8c2,1.3,4.6,1.2,6.8,0.4c2.7-1,4.8-3.4,6.1-5.9
			c2-3.6,2.3-7.8,2.6-11.8c0.1-0.5,0-1.1,0.5-1.3c3.3-1.8,6.4-3.8,9.4-6c0.4,0.4,0.7,0.9,1,1.3c-1.6,0.9-3.1,1.9-4.3,3.3
			C38,43.2,38,51.4,42.6,56.1c2.4,2.5,6,3.5,9.3,3.1c3.1-0.4,5.9-2.4,7.4-5.1c2.1-3.4,1.7-8.2-1-11.2c-2.5-2.8-7.4-2.7-9.9,0.1
			c-1.9,2-2,5.6,0,7.6c0.8,0.8,2.2,1.3,3.3,0.6c0.7-0.5,0.6-1.5,0.1-2.1c-0.7-0.8-1.5-1.8-1.3-3c0.2-1.5,1.9-2.5,3.3-2.1
			c1.2,0.2,2.2,1.1,2.7,2.3c1.1,2.6,0.5,5.7-1.5,7.7c-2,2.1-5.6,2.5-8.1,0.9c-2.2-1.3-3.4-3.8-3.8-6.3c-0.4-3,0.2-6.2,2-8.6
			c1.2-1.5,2.9-2.8,4.8-3.3c1.6,0.1,3.3,0.4,4.8-0.1c0.7-0.3,1.5-1.1,1.1-1.9c-0.4-0.8-1.4-1.1-2.2-1.3c-1.2-0.2-2.5,0.1-3.7,0.3
			c-0.9-0.3-1.3-1.2-1.6-2c2.4-1.8,4.7-3.7,6.3-6.2c0.9-1.5,1.5-3.4,1.1-5.1c-0.3-1.2-1.3-2.2-2.5-2.4c-2.1-0.5-4.1,0.5-5.5,2
			c-2.2,2.4-3.4,5.8-3.3,9.1c0,0.7,0.2,1.4,0,2c-1.7,1.4-3.6,2.4-5.4,3.6c-1,0.6-2,1.3-3.1,1.8c0-1,0.1-2.1,0.4-3.1
			c0.8-1.1,1.8-2,2.4-3.2c0.5-0.8,0.9-1.9,0.4-2.8c-0.4-0.7-1.4-0.6-2.1-0.3c-1.4,0.7-2.1,2.1-2.7,3.5c-0.4,0.9-0.4,1.9-1.2,2.6
			c-1.1,1-2.5,2-4,1.9c-0.9,0-1.5-0.8-1.7-1.6c2.5-1,4.5-2.7,6.2-4.8c1.5-2,2.8-4.3,3-6.9c0.1-1.3-0.3-2.7-1.5-3.4
			C33.7,17.7,31.9,17.9,30.5,18.6z"/>
		<path class="st2" d="M31.9,21c0.6-0.4,1.5-0.2,1.8,0.5c0.2,0.9-0.1,1.7-0.5,2.5c-1,2.1-2.6,4-4.4,5.5c-0.4,0.4-1,0.7-1.5,1
			c0.1-1.9,0.7-3.7,1.5-5.4C29.6,23.5,30.5,22,31.9,21z M50.3,21.7c0.5-0.6,1.4-1.2,2.2-0.8c0.8,0.5,0.4,1.6,0.1,2.3
			c-1.2,2.2-2.9,4-4.8,5.5C47.7,26.2,48.7,23.7,50.3,21.7z M25.1,46.5c2.2-1.9,4.6-3.4,7.2-4.6c-0.3,2.9-1,5.7-2,8.4
			c-0.9,2.2-2.3,4.4-4.6,5.3c-1.2,0.4-2.7,0.7-3.8-0.2c-1-0.9-0.9-2.3-0.6-3.5C21.9,49.7,23.5,48,25.1,46.5z"/>
	</g>
</g>
</svg>
